<mxfile host="app.diagrams.net" modified="2023-05-15T05:17:58.061Z" agent="Mozilla/5.0 (Macintosh; Intel Mac OS X 10_15_7) AppleWebKit/537.36 (KHTML, like Gecko) Chrome/112.0.0.0 Safari/537.36" etag="ahZ_njwde0XV4hdOBgHN" version="21.2.9" type="github">
  <diagram name="Page-1" id="6a6OOwxo6Y9_htjvIanm">
    <mxGraphModel dx="1434" dy="748" grid="1" gridSize="10" guides="1" tooltips="1" connect="1" arrows="1" fold="1" page="1" pageScale="1" pageWidth="850" pageHeight="1100" math="0" shadow="0">
      <root>
        <mxCell id="0" />
        <mxCell id="1" parent="0" />
        <mxCell id="-UJmYH7cU9t-iPEf6zQ2-1" value="" style="rounded=0;whiteSpace=wrap;html=1;fillColor=#f5f5f5;fontColor=#333333;strokeColor=#666666;" parent="1" vertex="1">
          <mxGeometry x="120" y="120" width="840" height="520" as="geometry" />
        </mxCell>
        <mxCell id="wqtQaAzmY_qlGZJuY417-6" value="" style="group" vertex="1" connectable="0" parent="1">
          <mxGeometry x="470" y="130" width="440" height="470" as="geometry" />
        </mxCell>
        <mxCell id="UZ_lWxhkcz9oKxHN5GgZ-2" value="service_type&lt;br&gt;gpu-docker-a100" style="rounded=1;whiteSpace=wrap;html=1;fillColor=#d5e8d4;strokeColor=#82b366;" parent="wqtQaAzmY_qlGZJuY417-6" vertex="1">
          <mxGeometry y="80" width="120" height="60" as="geometry" />
        </mxCell>
        <mxCell id="UZ_lWxhkcz9oKxHN5GgZ-3" value="service_type&lt;br&gt;gpu-docker-v100" style="rounded=1;whiteSpace=wrap;html=1;fillColor=#d5e8d4;strokeColor=#82b366;" parent="wqtQaAzmY_qlGZJuY417-6" vertex="1">
          <mxGeometry y="170" width="120" height="60" as="geometry" />
        </mxCell>
        <mxCell id="UZ_lWxhkcz9oKxHN5GgZ-6" value="service_type&lt;br&gt;gpu-docker-vgpu" style="rounded=1;whiteSpace=wrap;html=1;fillColor=#d5e8d4;strokeColor=#82b366;" parent="wqtQaAzmY_qlGZJuY417-6" vertex="1">
          <mxGeometry y="260" width="120" height="60" as="geometry" />
        </mxCell>
        <mxCell id="UZ_lWxhkcz9oKxHN5GgZ-7" value="service_type&lt;br&gt;gpu-bm-v100" style="rounded=1;whiteSpace=wrap;html=1;fillColor=#d5e8d4;strokeColor=#82b366;" parent="wqtQaAzmY_qlGZJuY417-6" vertex="1">
          <mxGeometry y="410" width="120" height="60" as="geometry" />
        </mxCell>
        <mxCell id="UZ_lWxhkcz9oKxHN5GgZ-10" value="Usage" style="text;html=1;strokeColor=#82b366;fillColor=#d5e8d4;align=center;verticalAlign=middle;whiteSpace=wrap;rounded=0;strokeWidth=1;fontSize=20;fontStyle=0" parent="wqtQaAzmY_qlGZJuY417-6" vertex="1">
          <mxGeometry x="20" width="80" height="40" as="geometry" />
        </mxCell>
        <mxCell id="UZ_lWxhkcz9oKxHN5GgZ-11" value="" style="endArrow=none;dashed=1;html=1;dashPattern=1 3;strokeWidth=2;rounded=0;exitX=0.5;exitY=0;exitDx=0;exitDy=0;entryX=0.5;entryY=1;entryDx=0;entryDy=0;" parent="wqtQaAzmY_qlGZJuY417-6" source="UZ_lWxhkcz9oKxHN5GgZ-7" target="UZ_lWxhkcz9oKxHN5GgZ-6" edge="1">
          <mxGeometry width="50" height="50" relative="1" as="geometry">
            <mxPoint x="60" y="400" as="sourcePoint" />
            <mxPoint x="60" y="340" as="targetPoint" />
          </mxGeometry>
        </mxCell>
        <mxCell id="wqtQaAzmY_qlGZJuY417-5" value="" style="group" vertex="1" connectable="0" parent="wqtQaAzmY_qlGZJuY417-6">
          <mxGeometry x="140" width="300" height="470" as="geometry" />
        </mxCell>
        <mxCell id="UZ_lWxhkcz9oKxHN5GgZ-26" value="" style="endArrow=classic;startArrow=classic;html=1;rounded=0;" parent="wqtQaAzmY_qlGZJuY417-5" edge="1">
          <mxGeometry width="50" height="50" relative="1" as="geometry">
            <mxPoint y="110" as="sourcePoint" />
            <mxPoint x="160" y="110" as="targetPoint" />
          </mxGeometry>
        </mxCell>
        <mxCell id="UZ_lWxhkcz9oKxHN5GgZ-27" value="" style="endArrow=classic;startArrow=classic;html=1;rounded=0;" parent="wqtQaAzmY_qlGZJuY417-5" edge="1">
          <mxGeometry width="50" height="50" relative="1" as="geometry">
            <mxPoint y="199.5" as="sourcePoint" />
            <mxPoint x="160" y="199.5" as="targetPoint" />
          </mxGeometry>
        </mxCell>
        <mxCell id="UZ_lWxhkcz9oKxHN5GgZ-28" value="" style="endArrow=classic;startArrow=classic;html=1;rounded=0;" parent="wqtQaAzmY_qlGZJuY417-5" edge="1">
          <mxGeometry width="50" height="50" relative="1" as="geometry">
            <mxPoint y="289.5" as="sourcePoint" />
            <mxPoint x="160" y="289.5" as="targetPoint" />
          </mxGeometry>
        </mxCell>
        <mxCell id="UZ_lWxhkcz9oKxHN5GgZ-29" value="" style="endArrow=classic;startArrow=classic;html=1;rounded=0;" parent="wqtQaAzmY_qlGZJuY417-5" edge="1">
          <mxGeometry width="50" height="50" relative="1" as="geometry">
            <mxPoint y="439.5" as="sourcePoint" />
            <mxPoint x="160" y="439.5" as="targetPoint" />
          </mxGeometry>
        </mxCell>
        <mxCell id="wqtQaAzmY_qlGZJuY417-4" value="" style="group" vertex="1" connectable="0" parent="wqtQaAzmY_qlGZJuY417-5">
          <mxGeometry x="180" width="120" height="470" as="geometry" />
        </mxCell>
        <mxCell id="UZ_lWxhkcz9oKxHN5GgZ-14" value="service_type&lt;br&gt;gpu-docker-a100" style="shape=cylinder3;whiteSpace=wrap;html=1;boundedLbl=1;backgroundOutline=1;size=15;fillColor=#fff2cc;strokeColor=#d6b656;" parent="wqtQaAzmY_qlGZJuY417-4" vertex="1">
          <mxGeometry y="70" width="120" height="70" as="geometry" />
        </mxCell>
        <mxCell id="UZ_lWxhkcz9oKxHN5GgZ-20" value="server" style="text;html=1;strokeColor=#d6b656;fillColor=#fff2cc;align=center;verticalAlign=middle;whiteSpace=wrap;rounded=0;strokeWidth=1;fontSize=20;fontStyle=0" parent="wqtQaAzmY_qlGZJuY417-4" vertex="1">
          <mxGeometry x="20" width="80" height="40" as="geometry" />
        </mxCell>
        <mxCell id="UZ_lWxhkcz9oKxHN5GgZ-22" value="service_type&lt;br&gt;gpu-docker-v100" style="shape=cylinder3;whiteSpace=wrap;html=1;boundedLbl=1;backgroundOutline=1;size=15;fillColor=#fff2cc;strokeColor=#d6b656;" parent="wqtQaAzmY_qlGZJuY417-4" vertex="1">
          <mxGeometry y="160" width="120" height="70" as="geometry" />
        </mxCell>
        <mxCell id="UZ_lWxhkcz9oKxHN5GgZ-23" value="service_type&lt;br&gt;gpu-docker-vgpu" style="shape=cylinder3;whiteSpace=wrap;html=1;boundedLbl=1;backgroundOutline=1;size=15;fillColor=#fff2cc;strokeColor=#d6b656;" parent="wqtQaAzmY_qlGZJuY417-4" vertex="1">
          <mxGeometry y="250" width="120" height="70" as="geometry" />
        </mxCell>
        <mxCell id="UZ_lWxhkcz9oKxHN5GgZ-24" value="service_type&lt;br&gt;gpu-bm-v100" style="shape=cylinder3;whiteSpace=wrap;html=1;boundedLbl=1;backgroundOutline=1;size=15;fillColor=#fff2cc;strokeColor=#d6b656;" parent="wqtQaAzmY_qlGZJuY417-4" vertex="1">
          <mxGeometry y="400" width="120" height="70" as="geometry" />
        </mxCell>
        <mxCell id="UZ_lWxhkcz9oKxHN5GgZ-25" value="" style="endArrow=none;dashed=1;html=1;dashPattern=1 3;strokeWidth=2;rounded=0;entryX=0.5;entryY=1;entryDx=0;entryDy=0;" parent="wqtQaAzmY_qlGZJuY417-4" edge="1">
          <mxGeometry width="50" height="50" relative="1" as="geometry">
            <mxPoint x="60" y="400" as="sourcePoint" />
            <mxPoint x="59.5" y="320" as="targetPoint" />
          </mxGeometry>
        </mxCell>
      </root>
    </mxGraphModel>
  </diagram>
</mxfile>
